<svg width="21" height="20" viewBox="0 0 21 20" fill="none" xmlns="http://www.w3.org/2000/svg">
<path d="M17.8007 10.98C17.8407 10.66 17.8707 10.34 17.8707 10C17.8707 9.66 17.8407 9.34 17.8007 9.02L19.9107 7.37C20.1007 7.22 20.1507 6.95 20.0307 6.73L18.0307 3.27C17.9407 3.11 17.7707 3.02 17.5907 3.02C17.5307 3.02 17.4707 3.03 17.4207 3.05L14.9307 4.05C14.4107 3.65 13.8507 3.32 13.2407 3.07L12.8607 0.42C12.8307 0.18 12.6207 0 12.3707 0H8.37069C8.12069 0 7.91069 0.18 7.88069 0.42L7.50069 3.07C6.89069 3.32 6.33069 3.66 5.81069 4.05L3.32069 3.05C3.26069 3.03 3.20069 3.02 3.14069 3.02C2.97069 3.02 2.80069 3.11 2.71069 3.27L0.710689 6.73C0.580689 6.95 0.640689 7.22 0.830689 7.37L2.94069 9.02C2.90069 9.34 2.87069 9.67 2.87069 10C2.87069 10.33 2.90069 10.66 2.94069 10.98L0.830689 12.63C0.640689 12.78 0.590689 13.05 0.710689 13.27L2.71069 16.73C2.80069 16.89 2.97069 16.98 3.15069 16.98C3.21069 16.98 3.27069 16.97 3.32069 16.95L5.81069 15.95C6.33069 16.35 6.89069 16.68 7.50069 16.93L7.88069 19.58C7.91069 19.82 8.12069 20 8.37069 20H12.3707C12.6207 20 12.8307 19.82 12.8607 19.58L13.2407 16.93C13.8507 16.68 14.4107 16.34 14.9307 15.95L17.4207 16.95C17.4807 16.97 17.5407 16.98 17.6007 16.98C17.7707 16.98 17.9407 16.89 18.0307 16.73L20.0307 13.27C20.1507 13.05 20.1007 12.78 19.9107 12.63L17.8007 10.98ZM15.8207 9.27C15.8607 9.58 15.8707 9.79 15.8707 10C15.8707 10.21 15.8507 10.43 15.8207 10.73L15.6807 11.86L16.5707 12.56L17.6507 13.4L16.9507 14.61L15.6807 14.1L14.6407 13.68L13.7407 14.36C13.3107 14.68 12.9007 14.92 12.4907 15.09L11.4307 15.52L11.2707 16.65L11.0707 18H9.67069L9.48069 16.65L9.32069 15.52L8.26069 15.09C7.83069 14.91 7.43069 14.68 7.03069 14.38L6.12069 13.68L5.06069 14.11L3.79069 14.62L3.09069 13.41L4.17069 12.57L5.06069 11.87L4.92069 10.74C4.89069 10.43 4.87069 10.2 4.87069 10C4.87069 9.8 4.89069 9.57 4.92069 9.27L5.06069 8.14L4.17069 7.44L3.09069 6.6L3.79069 5.39L5.06069 5.9L6.10069 6.32L7.00069 5.64C7.43069 5.32 7.84069 5.08 8.25069 4.91L9.31069 4.48L9.47069 3.35L9.67069 2H11.0607L11.2507 3.35L11.4107 4.48L12.4707 4.91C12.9007 5.09 13.3007 5.32 13.7007 5.62L14.6107 6.32L15.6707 5.89L16.9407 5.38L17.6407 6.59L16.5707 7.44L15.6807 8.14L15.8207 9.27ZM10.3707 6C8.16069 6 6.37069 7.79 6.37069 10C6.37069 12.21 8.16069 14 10.3707 14C12.5807 14 14.3707 12.21 14.3707 10C14.3707 7.79 12.5807 6 10.3707 6ZM10.3707 12C9.27069 12 8.37069 11.1 8.37069 10C8.37069 8.9 9.27069 8 10.3707 8C11.4707 8 12.3707 8.9 12.3707 10C12.3707 11.1 11.4707 12 10.3707 12Z" fill="#94A196"/>
</svg>
